<svg xmlns="http://www.w3.org/2000/svg" ><g transform="matrix(1.25 0 0 -1.25 83.398 390.39)"><path d="M-43.13 200.264V77.738" style="fill:#7a3838;fill-opacity:1;stroke:#363636;stroke-width:3.20000005;stroke-linecap:butt;stroke-linejoin:miter;stroke-miterlimit:4;stroke-opacity:1;stroke-dasharray:none"/><rect ry="11.301" transform="scale(1 -1)" y="-308.844" x="-62.375" height="112.003" width="40.895" style="fill:#363636;fill-opacity:1;stroke:none"/><rect style="fill:#4d4d4d;stroke:#595959;stroke-width:2.76886678;stroke-linecap:butt;stroke-linejoin:round;stroke-miterlimit:4;stroke-opacity:1;stroke-dasharray:none;stroke-dashoffset:0" width="40.895" height="112.003" x="-65.325" y="-310.943" transform="scale(1 -1)" ry="11.301"/><path style="fill:#333;stroke:#595959;stroke-width:3.20000005;stroke-linecap:butt;stroke-linejoin:miter;stroke-miterlimit:4;stroke-opacity:1;stroke-dasharray:none" d="M-44.878 200.273V77.748"/><path style="fill:#de3900;fill-opacity:1;stroke:none" d="M347.058 88.445c0 22.38-18.143 40.523-40.523 40.523-22.38 0-40.523-18.143-40.523-40.523 0-22.38 18.143-40.523 40.523-40.523 22.38 0 40.523 18.143 40.523 40.523z" transform="matrix(.3804 0 0 -.3804 -161.482 323.13)"/><path style="fill:#9c9;fill-opacity:1;stroke:none" d="M347.058 88.445c0 22.38-18.143 40.523-40.523 40.523-22.38 0-40.523-18.143-40.523-40.523 0-22.38 18.143-40.523 40.523-40.523 22.38 0 40.523 18.143 40.523 40.523z" transform="matrix(.3804 0 0 -.3804 -161.84 254.858)"/><path style="fill:#ff3f00;fill-opacity:1;stroke:none" d="M44.344 19.5c-1.863 12.455-14.215 23.005-27.5 25.188 3.014 1.955 6.608 3.124 10.468 3.124 10.642 0 19.25-8.64 19.25-19.28 0-3.262-.788-6.34-2.218-9.032z" transform="matrix(.8 0 0 -.8 -66.719 312.313)"/><path style="fill:#ff9936;fill-opacity:1;stroke:none" d="M347.058 88.445c0 22.38-18.143 40.523-40.523 40.523-22.38 0-40.523-18.143-40.523-40.523 0-22.38 18.143-40.523 40.523-40.523 22.38 0 40.523 18.143 40.523 40.523z" transform="matrix(.3804 0 0 -.3804 -161.488 288.624)"/><path d="M-31.244 262.215c-1.49-9.964-11.371-18.404-22-20.15 2.412-1.564 5.287-2.5 8.375-2.5 8.514 0 15.4 6.912 15.4 15.425 0 2.609-.63 5.071-1.775 7.225z" style="fill:#ff7e00;fill-opacity:1;stroke:none"/><path style="fill:#afffaf;fill-opacity:1;stroke:none" d="M-31.597 228.45c-1.49-9.965-11.371-18.404-22-20.15a15.354 15.354 0 0 1 8.375-2.5c8.513 0 15.4 6.911 15.4 15.424 0 2.61-.63 5.071-1.775 7.225z"/></g></svg>